<?xml version="1.0" standalone="no"?>
<!DOCTYPE svg PUBLIC "-//W3C//DTD SVG 20010904//EN"
 "http://www.w3.org/TR/2001/REC-SVG-20010904/DTD/svg10.dtd">
<svg version="1.0" xmlns="http://www.w3.org/2000/svg"
 width="1408.000000pt" height="768.000000pt" viewBox="0 0 1408.000000 768.000000"
 preserveAspectRatio="xMidYMid meet">

<g transform="translate(0.000000,768.000000) scale(0.100000,-0.100000)"
fill="#000000" stroke="none">
<path d="M10475 6559 c-38 -4 -227 -24 -418 -44 -222 -22 -359 -41 -377 -50
-16 -8 -42 -31 -59 -52 -26 -31 -41 -39 -92 -50 -129 -26 -242 -99 -325 -209
-55 -73 -87 -153 -120 -297 -15 -62 -30 -116 -34 -120 -4 -5 -401 -51 -881
-103 -481 -52 -1164 -125 -1519 -164 -355 -38 -899 -97 -1210 -130 -519 -55
-569 -62 -618 -86 -81 -40 -132 -124 -132 -219 0 -51 487 -1506 527 -1575 60
-102 180 -185 303 -209 51 -10 592 -75 2254 -271 735 -86 736 -86 792 -153 60
-71 79 -160 52 -251 -16 -55 -99 -138 -154 -154 -32 -9 -393 -12 -1540 -12
-1407 0 -1501 -1 -1533 -18 -49 -24 -73 -61 -73 -114 -1 -52 22 -98 62 -122
26 -15 160 -16 1557 -16 1662 0 1579 -3 1693 55 27 14 78 52 113 85 213 199
220 527 17 745 l-47 50 77 325 c73 306 240 1021 405 1730 122 523 183 774 193
800 24 60 73 111 135 141 34 16 70 29 80 29 9 0 35 -13 57 -29 23 -16 58 -32
78 -36 42 -7 919 80 969 96 38 12 109 87 120 126 12 42 9 133 -6 176 -17 50
-55 93 -102 117 -42 22 -115 24 -244 9z m-1495 -1126 c1 -5 -36 -167 -82 -360
l-82 -353 -45 0 c-25 0 -188 -7 -361 -15 -173 -7 -317 -12 -319 -9 -6 6 110
647 119 657 7 8 653 84 733 86 20 1 37 -2 37 -6z m-870 -225 c-15 -79 -42
-226 -60 -328 -18 -102 -34 -186 -35 -188 -2 -2 -866 -41 -937 -42 -5 0 -8
132 -8 294 l0 293 113 13 c578 64 888 98 918 99 l36 1 -27 -142z m-1100 -267
l0 -289 -67 -6 c-116 -10 -933 -40 -938 -34 -8 8 -116 490 -111 495 2 2 123
18 268 34 476 52 793 86 821 88 l27 1 0 -289z m-1185 137 c66 -287 106 -470
103 -473 -3 -3 -665 -30 -747 -30 l-54 0 -68 197 c-37 108 -69 207 -71 220
l-3 23 380 41 c468 51 453 50 460 22z m2973 -440 c-3 -7 -43 -176 -89 -375
l-84 -363 -95 0 c-134 1 -572 19 -578 25 -5 5 117 687 125 695 5 5 463 26 627
28 75 2 97 -1 94 -10z m-798 -25 c0 -10 -122 -687 -125 -690 0 -1 -179 4 -396
12 -217 8 -397 15 -401 15 -5 0 -8 141 -8 314 l0 314 83 6 c77 6 662 32 790
35 31 0 57 -2 57 -6z m-990 -342 c0 -171 -3 -312 -8 -315 -7 -4 -854 24 -860
29 -6 5 -123 547 -119 551 4 4 770 40 925 43 l62 1 0 -309z m-1066 260 c9 -14
125 -536 120 -540 -7 -8 -738 20 -747 28 -7 7 -169 483 -164 486 1 1 169 9
372 17 204 8 380 16 392 16 12 1 24 -2 27 -7z m-33 -608 l175 -6 52 -230 c28
-127 49 -233 47 -236 -8 -7 -566 59 -620 74 -51 14 -91 47 -115 94 -11 22
-110 309 -110 320 0 4 144 0 571 -16z m694 -23 c176 -6 339 -13 363 -16 l42
-5 0 -265 c0 -145 -3 -264 -7 -264 -16 0 -699 81 -719 85 -18 4 -26 30 -68
217 -26 117 -50 223 -53 236 -5 21 -2 22 58 22 35 0 208 -5 384 -10z m1003
-36 c175 -5 245 -11 248 -19 4 -10 -94 -575 -100 -582 -2 -2 -154 15 -339 37
-186 22 -339 40 -342 40 -3 0 -5 122 -5 272 l0 271 148 -6 c81 -4 257 -10 390
-13z m835 -31 c129 -5 157 -9 157 -21 0 -8 -24 -119 -54 -246 -30 -127 -62
-266 -72 -308 -13 -54 -23 -78 -33 -78 -29 0 -606 72 -610 76 -3 2 19 134 47
292 29 158 52 291 52 296 0 8 90 7 513 -11z"/>
<path d="M5796 2100 c-111 -28 -225 -123 -274 -228 -24 -50 -27 -69 -27 -157
0 -73 5 -112 18 -144 82 -200 303 -300 509 -230 113 38 182 101 236 216 24 51
27 70 27 153 -1 120 -25 187 -97 265 -72 79 -169 125 -274 130 -44 3 -96 0
-118 -5z m179 -250 c49 -30 78 -92 73 -152 -3 -27 -14 -62 -25 -76 -23 -32
-97 -72 -133 -72 -40 0 -113 42 -137 79 -30 45 -30 110 -1 162 47 84 142 109
223 59z"/>
<path d="M8075 2090 c-88 -28 -163 -84 -212 -158 -54 -80 -67 -127 -67 -228 0
-69 5 -90 32 -147 41 -89 109 -159 191 -200 62 -30 72 -32 176 -32 104 0 114
2 176 32 75 37 145 106 183 180 103 204 3 461 -211 543 -82 32 -190 36 -268
10z m197 -236 c90 -46 109 -175 37 -250 -79 -82 -210 -61 -259 42 -68 139 82
280 222 208z"/>
</g>
</svg>
