<?xml version="1.0" standalone="no"?>
<!DOCTYPE svg PUBLIC "-//W3C//DTD SVG 20010904//EN"
 "http://www.w3.org/TR/2001/REC-SVG-20010904/DTD/svg10.dtd">
<svg version="1.0" xmlns="http://www.w3.org/2000/svg"
 width="1380.000000pt" height="752.000000pt" viewBox="0 0 1380.000000 752.000000"
 preserveAspectRatio="xMidYMid meet">

<g transform="translate(0.000000,752.000000) scale(0.100000,-0.100000)"
fill="#000000" stroke="none">
<path d="M4674 5061 c-131 -60 -132 -254 -1 -324 l42 -22 2220 -3 c1523 -2
2236 1 2269 8 57 12 110 48 130 88 47 94 13 207 -74 252 -39 20 -67 20 -2292
20 -2176 0 -2254 -1 -2294 -19z"/>
<path d="M4685 3921 c-62 -28 -115 -104 -115 -166 0 -62 53 -138 115 -166 38
-18 128 -19 2281 -19 l2240 0 50 25 c124 62 132 245 14 318 l-35 22 -2255 2
c-2171 3 -2257 2 -2295 -16z"/>
<path d="M4728 2789 c-162 -25 -210 -238 -75 -327 l41 -27 2259 -3 c2208 -2
2260 -2 2302 17 98 43 132 173 70 263 -17 24 -48 52 -70 63 -40 20 -61 20
-2260 21 -1221 0 -2241 -3 -2267 -7z"/>
</g>
</svg>
